<?xml version="1.0" standalone="no" ?>
<!DOCTYPE svg PUBLIC "-//W3C//DTD SVG 20010904//EN"
  "http://www.w3.org/TR/2001/REC-SVG-20010904/DTD/svg10.dtd">
<svg
  version="1.0"
  xmlns="http://www.w3.org/2000/svg"
  width="132.000000pt"
  height="141.000000pt"
  viewBox="0 0 132.000000 141.000000"
  preserveAspectRatio="xMidYMid meet"
>
<metadata>
Created by potrace 1.10, written by Peter Selinger 2001-2011
</metadata>
<g
    transform="translate(0.000000,141.000000) scale(0.100000,-0.100000)"
    fill="#666666"
    stroke="none"
  >
<path
      d="M327 1291 c-68 -19 -97 -35 -97 -54 0 -5 16 -27 35 -48 21 -23 35
-49 35 -65 0 -60 56 -118 144 -147 61 -21 98 -21 154 -2 91 32 133 72 140 134
3 31 15 59 35 85 38 48 30 64 -44 90 -82 28 -310 32 -402 7z m68 -81 c3 -5 24
-10 45 -10 21 0 42 5 45 10 8 14 68 13 82 -1 11 -11 57 -8 116 6 32 9 35 -5
10 -36 -34 -39 -70 -50 -168 -50 -97 -1 -135 11 -176 52 -27 27 -24 39 10 39
17 0 33 -4 36 -10z"
    />
<path
      d="M689 964 c-94 -98 -248 -100 -330 -4 -27 32 -52 33 -64 3 -6 -17 -95
-155 -105 -163 -21 -18 -72 -119 -85 -171 -15 -55 -15 -68 -1 -128 28 -121 61
-168 161 -228 93 -55 278 -80 364 -50 l34 12 1 257 1 257 29 30 c17 17 38 31
47 31 10 0 21 5 24 10 3 6 16 10 29 10 36 0 37 10 7 49 -16 20 -39 55 -51 79
-12 23 -23 42 -24 42 -1 0 -18 -16 -37 -36z"
    />
<path
      d="M786 773 c-59 -21 -66 -30 -66 -88 0 -38 5 -56 18 -68 39 -35 180
-34 219 2 22 21 30 90 13 121 -10 19 -90 51 -124 49 -12 -1 -39 -8 -60 -16z"
    />
<path
      d="M1026 742 c-3 -5 -4 -47 -3 -93 l4 -84 61 0 c78 0 93 14 95 85 2 46
-1 55 -23 71 -29 21 -124 36 -134 21z"
    />
<path
      d="M713 535 c-3 -8 -2 -30 1 -48 9 -47 50 -67 138 -67 92 0 128 23 128
80 0 38 -13 60 -24 41 -3 -5 -29 -16 -56 -25 -54 -18 -86 -13 -153 20 -24 12
-29 12 -34 -1z"
    />
<path
      d="M1140 496 c-18 -11 -52 -23 -75 -26 -38 -5 -40 -7 -43 -42 -4 -43 17
-54 75 -43 68 12 93 34 93 80 0 48 -11 54 -50 31z"
    />
<path
      d="M714 366 c-3 -9 -3 -32 0 -52 6 -29 14 -38 44 -51 73 -31 204 -13
216 30 8 30 8 72 -1 80 -3 4 -15 -1 -26 -10 -29 -27 -176 -26 -206 1 -19 17
-21 17 -27 2z"
    />
<path
      d="M1160 335 c-6 -8 -33 -17 -58 -21 -71 -10 -82 -19 -82 -64 0 -39 1
-40 37 -40 54 0 120 28 127 54 15 56 1 101 -24 71z"
    />
<path
      d="M716 203 c-3 -4 -6 -23 -6 -43 0 -59 26 -74 129 -78 76 -3 89 -1 114
18 20 16 27 30 27 55 0 42 -14 51 -45 31 -36 -23 -141 -21 -182 3 -17 11 -34
17 -37 14z"
    />
</g>
</svg>
